<?xml version="1.0" encoding="UTF-8"?>
<svg id="Layer_1" xmlns="http://www.w3.org/2000/svg" version="1.1" xmlns:xlink="http://www.w3.org/1999/xlink" viewBox="0 0 437 368">
  <!-- Generator: Adobe Illustrator 29.8.3, SVG Export Plug-In . SVG Version: 2.1.1 Build 3)  -->
  <defs>
    <style>
      .st0 {
        fill: url(#linear-gradient1);
      }

      .st1 {
        fill: url(#linear-gradient);
      }
    </style>
    <linearGradient id="linear-gradient" x1="-1071" y1="146.2" x2="-1071" y2="151.2" gradientTransform="translate(93933.9 -10706.7) scale(87.5 73.5)" gradientUnits="userSpaceOnUse">
      <stop offset="0" stop-color="#f57c00"/>
      <stop offset="1" stop-color="#e65100"/>
    </linearGradient>
    <linearGradient id="linear-gradient1" x1="-1059.8" y1="146.8" x2="-1059.8" y2="151.8" gradientTransform="translate(50718.9 -9058.5) scale(47.7 61.5)" gradientUnits="userSpaceOnUse">
      <stop offset="0" stop-color="#283593"/>
      <stop offset="1" stop-color="#1a237e"/>
    </linearGradient>
  </defs>
  <path class="st1" d="M376,367.5c-35,0-64-11-86-33.5-16.5-16.5-27.5-37.5-32.5-62.5-26,20-58.5,30-96.5,30s-57.5-6.5-82-19.5-44-31-58-54S0,179.5,0,150.5s7-54.5,21-77.5,33-41,57.5-53.5C103,7,130.5.5,161,.5s71.5,9.5,100.5,28l8.5,58.5h-3.5c-8.5-32-27-54-56.5-65.5-14.5-6-30.5-8.5-49-8.5-37.5,0-68.5,13-93,39s-37,59-37,98.5,12.5,73,37.5,99,55.5,39.5,92.5,39.5,35-3,51.5-9.5,30-15,42-26.5v-73.5c0-6-2-10.5-5.5-14-3.5-3-8.5-5-15.5-5h-6.5v-4h81v4h-6c-7,0-12,1.5-16,5-3.5,3-5,8-5,14v64c1.5,43.5,16,75,42.5,93.5,18.5,13,43,20,73,20s26-1.5,40.5-3.5v4c-21.5,7-42,10.5-61,10.5h0v-.5Z"/>
  <path class="st0" d="M218,112.5c-5,5.5-11,9.5-17.5,12,28,4,49.5,14,64,29.5s22,35,22,57.5-11,49.5-33.5,66.5-52,25.5-88.5,25.5-65-9-85.5-26.5-31-42.5-31-75v-5l4.5-1c5.5,42,23.5,69.5,53.5,82V30.5c-.5-7.5-3.5-14-9-19-5.5-5-11.5-7.5-19-7.5h-5V0h72.5c27,0,48.5,6,65,18.5,16,12,24.5,28,24.5,48s-5.5,35-16.5,46h-.5ZM134,13.5v272c9.5,1.5,20.5,2,32.5,2,27.5,0,49-7.5,64.5-22,15.5-14.5,23-33.5,23-56.5s-2.5-23.5-7-33c-4.5-9.5-10.5-17-18-22.5-19-14.5-45.5-21.5-80-21.5h0v-4h0c14.5,0,27-4.5,37.5-14s15.5-24,15.5-44c0-37.5-21-56-62.5-56h-5.5v-.5Z"/>
</svg>